<svg width="21" height="21" viewBox="0 0 21 21" fill="none" xmlns="http://www.w3.org/2000/svg">
                              <path d="M7.16666 18.8334C7.6269 18.8334 7.99999 18.4603 7.99999 18C7.99999 17.5398 7.6269 17.1667 7.16666 17.1667C6.70642 17.1667 6.33333 17.5398 6.33333 18C6.33333 18.4603 6.70642 18.8334 7.16666 18.8334Z" stroke="currentColor" stroke-width="1.5" stroke-linecap="round" stroke-linejoin="round"></path>
                              <path d="M16.3333 18.8334C16.7936 18.8334 17.1667 18.4603 17.1667 18C17.1667 17.5398 16.7936 17.1667 16.3333 17.1667C15.8731 17.1667 15.5 17.5398 15.5 18C15.5 18.4603 15.8731 18.8334 16.3333 18.8334Z" stroke="currentColor" stroke-width="1.5" stroke-linecap="round" stroke-linejoin="round"></path>
                              <path d="M2.20833 2.20831H3.875L6.09166 12.8751C6.17298 13.2542 6.38389 13.593 6.68809 13.8333C6.99229 14.0736 7.37075 14.2004 7.75833 14.1918H15.9083C16.2876 14.1912 16.6554 14.0612 16.9509 13.8233C17.2463 13.5854 17.4518 13.2539 17.5333 12.8834L19.25 5.91666H4.66921" stroke="currentColor" stroke-width="1.5" stroke-linecap="round" stroke-linejoin="round"></path>
                            </svg>