<svg width="1em" height="1em" viewBox="0 0 24 24" fill="none" xmlns="http://www.w3.org/2000/svg">
                          <path d="M20.25 6.75a1.5 1.5 0 0 1 1.5 1.5V19.5a1.5 1.5 0 0 1-1.5 1.5H3.75a1.5 1.5 0 0 1-1.5-1.5V8.25a1.5 1.5 0 0 1 1.5-1.5h16.5Zm0 1.5H3.75V19.5h16.5V8.25Z" fill="currentColor"></path>
                          <path d="m20.25 7.5-3.091-3.53a.75.75 0 0 0-.53-.22H7.37a.75.75 0 0 0-.53.22L3.75 7.06l16.5.44Z" stroke="currentColor" stroke-width="1.5"></path>
                          <path d="m11.735 9.485.53.53a.375.375 0 0 1 0 .53L10.81 12h5.315c.207 0 .375.168.375.375v4.5a.375.375 0 0 1-.375.375h-8.25a.375.375 0 0 1-.375-.375v-.75c0-.207.168-.375.375-.375H15V13.5H8.095a.375.375 0 0 1-.265-.64l3.375-3.375a.375.375 0 0 1 .53 0Z" fill="#df0024"></path>
                        </svg>