<svg width="1em" height="1em" viewBox="0 0 24 24" fill="none" xmlns="http://www.w3.org/2000/svg">
                          <path d="M7.125 16.125a2.625 2.625 0 1 1 0 5.25 2.625 2.625 0 0 1 0-5.25Zm9.75 0a2.625 2.625 0 1 1 0 5.25 2.625 2.625 0 0 1 0-5.25Zm-9.75 1.5a1.125 1.125 0 1 0 0 2.25 1.125 1.125 0 0 0 0-2.25Zm9.75 0a1.125 1.125 0 1 0 0 2.25 1.125 1.125 0 0 0 0-2.25ZM20.25 3a1.5 1.5 0 0 1 1.5 1.5v14.625a.375.375 0 0 1-.375.375h-.75a.375.375 0 0 1-.375-.375V4.5H9.75v2.339L3.751 9.838l-.001 9.287a.375.375 0 0 1-.375.375h-.75a.375.375 0 0 1-.375-.375V9.838a1.5 1.5 0 0 1 .83-1.341L8.25 5.91V4.5A1.5 1.5 0 0 1 9.75 3h10.5Zm-7.125 15c.207 0 .375.168.375.375v.75a.375.375 0 0 1-.375.375h-2.25a.375.375 0 0 1-.375-.375v-.75c0-.207.168-.375.375-.375Z" fill="currentColor"></path>
                          <path d="M9.75 9.375v4.5a.375.375 0 0 1-.375.375h-3.75a.375.375 0 0 1-.375-.375v-.75c0-.207.168-.375.375-.375h2.25a.375.375 0 0 0 .375-.375v-3c0-.207.168-.375.375-.375h.75c.207 0 .375.168.375.375Z" fill="#df0024"></path>
                        </svg>