<svg width="1em" height="1em" viewBox="0 0 24 24" fill="none" xmlns="http://www.w3.org/2000/svg">
                          <path d="M11.933 3.211c.297.197.44.298.576.398C14.815 5.309 15.764 6 19.5 6v6.37c0 1.903-.603 3.56-1.814 4.969-1.262 1.467-3.162 2.662-5.681 3.612-2.523-.948-4.426-2.143-5.689-3.61C5.104 15.932 4.5 14.274 4.5 12.369V6c3.776 0 4.707-.704 7.028-2.479l.405-.31Z" stroke="currentColor" stroke-width="1.5"></path>
                          <path d="m14.735 10.235.53.53a.375.375 0 0 1 0 .53L11.78 14.78a.75.75 0 0 1-1.06 0l-1.985-1.985a.375.375 0 0 1 0-.53l.53-.53a.375.375 0 0 1 .53 0l1.455 1.454 2.954-2.954a.375.375 0 0 1 .53 0Z" fill="#df0024"></path>
                        </svg>